<?xml version="1.0" encoding="UTF-8" standalone="no"?>
<svg
   xmlns:dc="http://purl.org/dc/elements/1.1/"
   xmlns:cc="http://creativecommons.org/ns#"
   xmlns:rdf="http://www.w3.org/1999/02/22-rdf-syntax-ns#"
   xmlns:svg="http://www.w3.org/2000/svg"
   xmlns="http://www.w3.org/2000/svg"
   xmlns:xlink="http://www.w3.org/1999/xlink"
   xmlns:sodipodi="http://sodipodi.sourceforge.net/DTD/sodipodi-0.dtd"
   xmlns:inkscape="http://www.inkscape.org/namespaces/inkscape"
   width="286.30328"
   height="652.67749"
   id="svg2"
   sodipodi:version="0.32"
   inkscape:version="0.47 r22583"
   sodipodi:docname="bordered_f4a460-800000.svg"
   inkscape:output_extension="org.inkscape.output.svg.inkscape"
   version="1.0"
   inkscape:export-xdpi="15.719862"
   inkscape:export-ydpi="15.719862">
  <title
     id="title3671">Scout Neckerchief</title>
  <defs
     id="defs4">
    <linearGradient
       id="linearGradient3780">
      <stop
         id="stop3782"
         offset="0"
         style="stop-color:#ffffff;stop-opacity:0;" />
      <stop
         style="stop-color:#ffffff;stop-opacity:0.31372549;"
         offset="0.3910777"
         id="stop3784" />
      <stop
         style="stop-color:#ffffff;stop-opacity:0.627451;"
         offset="0.5594219"
         id="stop3786" />
      <stop
         id="stop3788"
         offset="0.77440774"
         style="stop-color:#ffffff;stop-opacity:0.31372549;" />
      <stop
         id="stop3790"
         offset="1"
         style="stop-color:#ffffff;stop-opacity:0;" />
    </linearGradient>
    <linearGradient
       id="linearGradient3768">
      <stop
         id="stop3770"
         offset="0"
         style="stop-color:#000000;stop-opacity:0;" />
      <stop
         style="stop-color:#000000;stop-opacity:0;"
         offset="0.54909247"
         id="stop3776" />
      <stop
         id="stop3774"
         offset="1"
         style="stop-color:#000000;stop-opacity:0.97777778;" />
    </linearGradient>
    <linearGradient
       id="linearGradient3641">
      <stop
         id="stop3643"
         offset="0"
         style="stop-color:#000000;stop-opacity:0;" />
      <stop
         style="stop-color:#000000;stop-opacity:0;"
         offset="0.51740217"
         id="stop3649" />
      <stop
         style="stop-color:#000000;stop-opacity:0.68627453;"
         offset="1"
         id="stop3645" />
    </linearGradient>
    <linearGradient
       id="linearGradient3866">
      <stop
         style="stop-color:#ffffff;stop-opacity:0;"
         offset="0"
         id="stop3868" />
      <stop
         id="stop3870"
         offset="0.21099687"
         style="stop-color:#ffffff;stop-opacity:0.31372549;" />
      <stop
         id="stop3872"
         offset="0.27506578"
         style="stop-color:#ffffff;stop-opacity:0.627451;" />
      <stop
         style="stop-color:#ffffff;stop-opacity:0.31372549;"
         offset="0.29509467"
         id="stop3874" />
      <stop
         id="stop3876"
         offset="0.35770282"
         style="stop-color:#ffffff;stop-opacity:0;" />
      <stop
         style="stop-color:#ffffff;stop-opacity:0;"
         offset="1"
         id="stop3878" />
    </linearGradient>
    <linearGradient
       id="linearGradient3748">
      <stop
         style="stop-color:#b4551e;stop-opacity:1;"
         offset="0"
         id="stop3750" />
      <stop
         style="stop-color:#501616;stop-opacity:1;"
         offset="1"
         id="stop3752" />
    </linearGradient>
    <linearGradient
       id="linearGradient3726">
      <stop
         style="stop-color:#ffffff;stop-opacity:0;"
         offset="0"
         id="stop3728" />
      <stop
         id="stop3742"
         offset="0.2568936"
         style="stop-color:#ffffff;stop-opacity:0.31372549;" />
      <stop
         id="stop3736"
         offset="0.28189507"
         style="stop-color:#ffffff;stop-opacity:0.627451;" />
      <stop
         style="stop-color:#ffffff;stop-opacity:0.31372549;"
         offset="0.36269704"
         id="stop3740" />
      <stop
         style="stop-color:#ffffff;stop-opacity:0;"
         offset="1"
         id="stop3730" />
    </linearGradient>
    <linearGradient
       id="linearGradient3709">
      <stop
         style="stop-color:#ffffff;stop-opacity:0;"
         offset="0"
         id="stop3711" />
      <stop
         id="stop3717"
         offset="1"
         style="stop-color:#ffffff;stop-opacity:0.68627453;" />
    </linearGradient>
    <linearGradient
       id="linearGradient3689">
      <stop
         style="stop-color:#ffffff;stop-opacity:0;"
         offset="0"
         id="stop3691" />
      <stop
         id="stop3699"
         offset="0.28966019"
         style="stop-color:#ffffff;stop-opacity:0.50980395;" />
      <stop
         style="stop-color:#ffffff;stop-opacity:0;"
         offset="1"
         id="stop3693" />
    </linearGradient>
    <radialGradient
       inkscape:collect="always"
       xlink:href="#linearGradient3780"
       id="radialGradient3681"
       cx="365.42068"
       cy="528.42627"
       fx="365.42068"
       fy="528.42627"
       r="18.887081"
       gradientTransform="matrix(3.2926915,0.01396619,-0.07983457,18.821914,-788.32928,-9434.16)"
       gradientUnits="userSpaceOnUse" />
    <linearGradient
       inkscape:collect="always"
       xlink:href="#linearGradient3689"
       id="linearGradient3697"
       x1="367.46133"
       y1="529.82025"
       x2="403.11792"
       y2="529.82025"
       gradientUnits="userSpaceOnUse" />
    <linearGradient
       inkscape:collect="always"
       xlink:href="#linearGradient3709"
       id="linearGradient3715"
       x1="67.5"
       y1="98.21875"
       x2="216.71875"
       y2="98.21875"
       gradientUnits="userSpaceOnUse" />
    <radialGradient
       inkscape:collect="always"
       xlink:href="#linearGradient3726"
       id="radialGradient3732"
       cx="345.5647"
       cy="238.45224"
       fx="345.5647"
       fy="238.45224"
       r="143.15164"
       gradientTransform="matrix(2.7524182,-2.5378939,3.2670647,3.5432222,-1317.9779,256.51191)"
       gradientUnits="userSpaceOnUse" />
    <radialGradient
       inkscape:collect="always"
       xlink:href="#linearGradient3748"
       id="radialGradient3754"
       cx="336.61087"
       cy="349.34039"
       fx="336.61087"
       fy="349.34039"
       r="32.362589"
       gradientTransform="matrix(2.0174838,-0.00781592,0.00482002,1.2133188,-344.07999,-70.416861)"
       gradientUnits="userSpaceOnUse" />
    <radialGradient
       inkscape:collect="always"
       xlink:href="#linearGradient3866"
       id="radialGradient3864"
       gradientUnits="userSpaceOnUse"
       gradientTransform="matrix(1.6965875,1.3258142,-2.5504412,3.2636921,479.01247,-1128.9002)"
       cx="354.24344"
       cy="282.9938"
       fx="354.24344"
       fy="282.9938"
       r="143.15164" />
    <radialGradient
       inkscape:collect="always"
       xlink:href="#linearGradient3641"
       id="radialGradient3651"
       cx="142.10938"
       cy="85.089386"
       fx="142.10938"
       fy="85.089386"
       r="74.609375"
       gradientTransform="matrix(1.6444742,-0.0080594,0.0037247,0.76000144,-91.902759,26.210732)"
       gradientUnits="userSpaceOnUse" />
    <linearGradient
       inkscape:collect="always"
       xlink:href="#linearGradient3768"
       id="linearGradient3766"
       x1="341.73734"
       y1="529.70074"
       x2="375.51151"
       y2="529.70074"
       gradientUnits="userSpaceOnUse" />
  </defs>
  <sodipodi:namedview
     id="base"
     pagecolor="#ffffff"
     bordercolor="#666666"
     borderopacity="1.0"
     inkscape:pageopacity="0.0"
     inkscape:pageshadow="2"
     inkscape:zoom="1.4142136"
     inkscape:cx="80.673771"
     inkscape:cy="140.4448"
     inkscape:document-units="px"
     inkscape:current-layer="layer1"
     showgrid="true"
     showguides="true"
     inkscape:window-width="1280"
     inkscape:window-height="727"
     inkscape:window-x="0"
     inkscape:window-y="24"
     inkscape:window-maximized="1"
     inkscape:snap-grids="false"
     inkscape:snap-to-guides="false"
     inkscape:snap-nodes="false"
     inkscape:snap-global="false">
    <inkscape:grid
       type="xygrid"
       id="grid2834"
       empspacing="5"
       visible="true"
       enabled="true"
       snapvisiblegridlinesonly="true" />
  </sodipodi:namedview>
  <metadata
     id="metadata7">
    <rdf:RDF>
      <cc:Work
         rdf:about="">
        <dc:format>image/svg+xml</dc:format>
        <dc:type
           rdf:resource="http://purl.org/dc/dcmitype/StillImage" />
        <dc:title>Scout Neckerchief</dc:title>
        <dc:creator>
          <cc:Agent>
            <dc:title>Jeoire de Chassey</dc:title>
          </cc:Agent>
        </dc:creator>
        <cc:license
           rdf:resource="http://creativecommons.org/licenses/by-sa/3.0/" />
        <dc:description>Scout Neckerchief generated by NeckGen - http://www.scoutwiki.org/neckgen/</dc:description>
      </cc:Work>
      <cc:License
         rdf:about="http://creativecommons.org/licenses/by-sa/3.0/">
        <cc:permits
           rdf:resource="http://creativecommons.org/ns#Reproduction" />
        <cc:permits
           rdf:resource="http://creativecommons.org/ns#Distribution" />
        <cc:requires
           rdf:resource="http://creativecommons.org/ns#Notice" />
        <cc:requires
           rdf:resource="http://creativecommons.org/ns#Attribution" />
        <cc:permits
           rdf:resource="http://creativecommons.org/ns#DerivativeWorks" />
        <cc:requires
           rdf:resource="http://creativecommons.org/ns#ShareAlike" />
      </cc:License>
    </rdf:RDF>
  </metadata>
  <g
     inkscape:label="Variable"
     inkscape:groupmode="layer"
     id="layer1"
     transform="translate(-224.5,-49.616645)"
     style="display:inline">
    <path
       style="fill:#f4a460;fill-opacity:1;stroke:none"
       d="M 142.96875,0 C 101.24479,0 59.64033,13.864372 29.90625,47.71875 0.17216,81.573125 -7.02196,138.99594 6.65625,180.1875 c 17.257621,51.97085 61.071629,118.56984 116.9375,146.0625 -10.4866,25.12172 -20.26328,81.00815 -14.78125,162.3125 8.69817,129.00285 22.87874,160.79374 29.875,160.40625 1.88987,-0.10467 4.10134,-12.76325 4.28125,-20.3125 -0.0246,10.80293 -0.33156,22.36542 3.75,23.9375 4.92797,1.89809 16.71382,-27.74178 30.28125,-163.03125 5.14958,-51.34979 -2.80839,-129.20058 -13.3125,-163.96875 55.22514,-27.89113 98.47454,-93.85224 115.59375,-145.40625 13.67821,-41.19156 8.07539,-96.802565 -23.25,-132.46875 C 227.88847,15.676184 184.69271,0 142.96875,0 z M 67.4375,70.90625 142.96875,146.4375 216.75,72.65625 c 11.80152,10.120751 20.54468,23.81056 25.5625,41.46875 12.72666,44.7863 -0.86345,73.65595 -20.9375,106 -28.78221,46.37496 -55.60066,73.46117 -78.3125,90.3125 C 120.3507,293.58617 93.43841,266.49996 64.65625,220.125 44.58224,187.78095 29.36938,154.06456 40.71875,114.125 46.2135,94.788436 55.365173,80.796361 67.4375,70.90625 z"
       id="rect3705"
       transform="translate(224.5,49.616645)"
       sodipodi:nodetypes="csscsscsscssccccsscssc" />
    <path
       style="fill:#800000;fill-opacity:1;stroke:none"
       d="M 226.34375 22.8125 L 211.5625 68.5625 C 206.45258 64.877884 200.85546 61.775388 194.8125 59.21875 L 142.96875 111.0625 L 90 58.09375 C 82.466779 60.951907 75.558282 64.653958 69.375 69.375 L 55.125 25.375 C 47.824759 30.355987 40.929198 36.150893 34.5 42.78125 L 50.1875 91.3125 C 54.956109 83.101329 60.747275 76.382001 67.4375 70.90625 L 142.96875 146.4375 L 216.75 72.65625 C 222.23946 77.364474 227.05878 82.830642 231.15625 89.125 L 247.4375 38.84375 C 240.94982 32.783753 233.86362 27.442732 226.34375 22.8125 z M 276.8125 82.625 L 240.5 108.4375 C 241.14442 110.29293 241.75793 112.17343 242.3125 114.125 C 244.38728 121.42633 245.76941 128.30445 246.53125 134.84375 L 283.9375 108.25 C 282.37392 99.501877 279.99834 90.895257 276.8125 82.625 z M 8.375 85.84375 C 5.4500103 94.252963 3.291938 103.02152 1.90625 111.9375 L 36.96875 136.875 C 37.319137 129.50557 38.499725 121.93397 40.71875 114.125 C 41.135742 112.65756 41.60379 111.21903 42.0625 109.8125 L 8.375 85.84375 z M 285.625 149.46875 L 247.15625 152.25 C 246.70103 161.21044 245.03001 169.58446 242.46875 177.65625 L 280.90625 174.875 C 283.20168 166.79802 284.79674 158.25058 285.625 149.46875 z M 0.59375 149.875 C 1.3611255 158.69216 2.8740184 167.24719 5.15625 175.28125 L 43.5 178.03125 C 40.582735 169.74435 38.482211 161.28391 37.5 152.53125 L 0.59375 149.875 z M 270.9375 201.78125 L 231 203.71875 C 228.04426 209.14664 224.80975 214.59081 221.375 220.125 C 219.37858 223.3417 217.38306 226.43463 215.40625 229.46875 L 258.125 227.4375 C 262.94263 218.83963 267.2299 210.22355 270.9375 201.78125 z M 15.15625 202.0625 C 18.872618 210.49894 23.177295 219.09999 28 227.6875 L 70.78125 229.75 C 68.745308 226.63102 66.712121 223.4375 64.65625 220.125 C 61.342991 214.78654 58.200826 209.40379 55.25 203.96875 L 15.15625 202.0625 z M 42.3125 250.78125 C 48.194563 259.38938 54.571298 267.79903 61.40625 275.78125 L 105.65625 275.78125 C 99.079495 268.41456 92.322688 260.13225 85.40625 250.78125 L 42.3125 250.78125 z M 200.65625 250.78125 C 193.74845 260.13225 187.00256 268.41456 180.4375 275.78125 L 224.53125 275.78125 C 231.36576 267.79974 237.74322 259.38864 243.625 250.78125 L 200.65625 250.78125 z M 126.40625 296.75 L 84.90625 299.75 C 94.861605 308.56221 105.44401 316.30114 116.5625 322.53125 L 117.9375 343.40625 L 142.96875 368.375 L 168.09375 343.3125 L 168.8125 322.875 C 179.995 316.67407 190.64252 308.94346 200.65625 300.125 L 159.3125 297.125 C 153.88208 301.97971 148.3149 306.57728 143.0625 310.4375 C 137.73296 306.48318 132.16827 301.94848 126.40625 296.75 z M 111.84375 373.9375 C 110.43521 383.57171 109.26782 394.23048 108.46875 405.9375 L 142.96875 440.4375 L 176.65625 406.75 C 175.78187 395.74322 174.62519 384.93852 173.28125 374.75 L 142.96875 405.0625 L 111.84375 373.9375 z M 107.25 441.34375 C 107.2137 452.75969 107.52011 464.87416 108.1875 477.65625 L 143 512.4375 L 177.9375 477.46875 C 178.59992 466.19401 178.7502 454.02482 178.46875 441.5625 L 143 477.03125 L 107.25 441.34375 z M 110.96875 517.0625 C 112.17188 531.55256 113.42811 544.56342 114.75 556.21875 L 143 584.4375 L 169.15625 558.25 C 170.72902 546.29643 172.3508 532.93397 174 518.03125 L 143 549.0625 L 110.96875 517.0625 z M 120.3125 596.40625 C 127.18615 636.9043 134.32776 649.21021 138.6875 648.96875 C 140.57737 648.86408 142.78884 636.2055 142.96875 628.65625 C 142.94415 639.45918 142.63719 651.02167 146.71875 652.59375 C 149.85156 653.8004 155.75169 642.23783 163.125 598.90625 L 143 619.0625 L 120.3125 596.40625 z "
       transform="translate(224.5,49.616645)"
       id="path2874" />
  </g>
  <g
     inkscape:groupmode="layer"
     id="layer3"
     inkscape:label="Permanent"
     style="display:inline"
     sodipodi:insensitive="true">
    <path
       id="path2992"
       d="M 333.30999,538.18315 C 322.91459,384.0084 367.45777,321.17031 367.46761,386.36122 l 0.0439,290.89791 c 0.001,7.37621 -2.33729,21.20567 -4.30845,21.31484 -6.99626,0.38749 -21.19491,-31.38797 -29.89308,-160.39082 z"
       style="fill:url(#linearGradient3766);fill-opacity:1;stroke:none;display:inline"
       sodipodi:nodetypes="cssss"
       transform="translate(-224.5,-49.616645)" />
    <path
       sodipodi:nodetypes="cssss"
       style="fill:url(#radialGradient3681);fill-opacity:1;stroke:none;display:inline"
       d="M 333.30999,538.18315 C 322.91459,384.0084 367.45777,321.17031 367.46761,386.36122 l 0.0439,290.89791 c 0.001,7.37621 -2.33729,21.20567 -4.30845,21.31484 -6.99626,0.38749 -21.19491,-31.38797 -29.89308,-160.39082 z"
       id="path3673"
       transform="translate(-224.5,-49.616645)" />
    <path
       style="fill:url(#linearGradient3715);fill-opacity:1;stroke:none;display:inline"
       d="m 216.71875,72.6875 c -1.2925,-1.108263 -2.57222,-2.227151 -3.9375,-3.25 -1.97622,-1.480558 -4.03186,-2.85213 -6.15625,-4.15625 -2.12439,-1.30412 -4.32633,-2.525585 -6.59375,-3.65625 -2.26742,-1.130665 -4.59468,-2.196057 -7,-3.15625 -2.40532,-0.960193 -4.86815,-1.832296 -7.40625,-2.625 -2.5381,-0.792704 -5.14676,-1.496803 -7.8125,-2.125 -2.66574,-0.628197 -5.39925,-1.158326 -8.1875,-1.625 -2.78825,-0.466674 -5.62562,-0.879367 -8.53125,-1.1875 C 155.28249,50.289984 149.21874,50 142.96875,50 c -6.24999,0 -12.30049,0.225546 -18.15625,0.71875 -5.85576,0.493204 -11.49234,1.245431 -16.90625,2.3125 -2.70696,0.533534 -5.38118,1.151626 -7.96875,1.84375 -2.587567,0.692124 -5.100274,1.451703 -7.5625,2.3125 -2.462226,0.860797 -4.856566,1.835448 -7.1875,2.875 -2.330934,1.039552 -4.587559,2.14661 -6.78125,3.375 -2.193691,1.22839 -4.324503,2.57269 -6.375,4 -1.569114,1.092229 -3.049065,2.317325 -4.53125,3.53125 l 75.46875,75.46875 73.75,-73.75 z"
       id="path3707"
       transform="translate(-4.0260751e-6,0)" />
    <path
       transform="translate(-224.5,-49.616645)"
       id="path3687"
       d="m 367.52164,380.36121 -0.0439,296.89792 c -0.002,11.07655 -0.47021,23.33229 3.73742,24.95293 4.92797,1.89809 16.72511,-27.73944 30.29254,-163.02891 8.4701,-84.46077 -18.48776,-240.64891 -33.98606,-158.82194 z"
       style="fill:url(#linearGradient3697);fill-opacity:1;stroke:none;display:inline"
       sodipodi:nodetypes="csssc" />
    <path
       transform="translate(-224.5,-49.616645)"
       sodipodi:nodetypes="czscsssczscssz"
       id="path3723"
       d="m 367.47774,49.616645 c -41.72396,0 -83.32842,13.864372 -113.0625,47.71875 -29.73409,33.854375 -36.92821,91.277185 -23.25,132.468745 19.20704,57.84147 71.3125,133.8125 136.3125,153.8125 65,-20 117.10546,-95.97103 136.3125,-153.8125 13.67821,-41.19156 8.07539,-96.80256 -23.25,-132.468745 -28.14278,-32.042566 -71.33854,-47.71875 -113.0625,-47.71875 z m 0,50 c 49.99995,0 86.61704,19.338695 99.3437,64.124995 12.72666,44.7863 -0.86345,73.65595 -20.9375,106 -28.78221,46.37496 -55.60066,73.46117 -78.3125,90.3125 -22.7118,-16.85133 -49.62409,-43.93754 -78.40625,-90.3125 -20.07401,-32.34405 -35.28687,-66.06044 -23.9375,-106 14.10391,-49.63304 52.2501,-64.124995 102.25005,-64.124995 z"
       style="fill:url(#radialGradient3732);fill-opacity:1;stroke:none;display:inline" />
    <path
       style="fill:url(#radialGradient3864);fill-opacity:1;stroke:none;display:inline"
       d="m 367.47774,99.616645 c 49.99995,0 86.61704,19.338695 99.3437,64.124995 12.72666,44.7863 -0.86345,73.65595 -20.9375,106 -28.78221,46.37496 -55.60066,73.46117 -78.3125,90.3125 l -0.0937,23.5625 c 65,-20 117.10546,-95.97103 136.3125,-153.8125 13.67821,-41.19156 8.07539,-96.80256 -23.25,-132.468745 -28.14278,-32.042566 -71.33854,-47.71875 -113.0625,-47.71875 l 0,50 z"
       id="path3862"
       sodipodi:nodetypes="czsccsscc"
       transform="translate(-224.5,-49.616645)" />
    <path
       style="fill:url(#radialGradient3754);fill-opacity:1;fill-rule:evenodd;stroke:none;display:inline"
       d="m 382.8478,354.85184 c 0,11.23817 -11.73298,20.34851 -32.32488,20.34851 -20.89627,0 -31.37461,-9.14959 -32.32488,-20.34851 -0.9536,-11.23818 6.98699,-20.29216 32.32488,-20.34852 25.33675,-0.0563 32.32488,9.11034 32.32488,20.34852 z"
       id="path3745"
       sodipodi:nodetypes="czszc"
       transform="matrix(1.1615793,0,0,1.1762518,-264.03586,-86.808247)" />
    <path
       transform="translate(-4.0260751e-6,0)"
       id="path2867"
       d="m 216.71875,72.6875 c -1.2925,-1.108263 -2.57222,-2.227151 -3.9375,-3.25 -1.97622,-1.480558 -4.03186,-2.85213 -6.15625,-4.15625 -2.12439,-1.30412 -4.32633,-2.525585 -6.59375,-3.65625 -2.26742,-1.130665 -4.59468,-2.196057 -7,-3.15625 -2.40532,-0.960193 -4.86815,-1.832296 -7.40625,-2.625 -2.5381,-0.792704 -5.14676,-1.496803 -7.8125,-2.125 -2.66574,-0.628197 -5.39925,-1.158326 -8.1875,-1.625 -2.78825,-0.466674 -5.62562,-0.879367 -8.53125,-1.1875 C 155.28249,50.289984 149.21874,50 142.96875,50 c -6.24999,0 -12.30049,0.225546 -18.15625,0.71875 -5.85576,0.493204 -11.49234,1.245431 -16.90625,2.3125 -2.70696,0.533534 -5.38118,1.151626 -7.96875,1.84375 -2.587567,0.692124 -5.100274,1.451703 -7.5625,2.3125 -2.462226,0.860797 -4.856566,1.835448 -7.1875,2.875 -2.330934,1.039552 -4.587559,2.14661 -6.78125,3.375 -2.193691,1.22839 -4.324503,2.57269 -6.375,4 -1.569114,1.092229 -3.049065,2.317325 -4.53125,3.53125 L 88.78426,92.25301 196.48973,92.916516 216.71875,72.6875 z"
       style="fill:url(#radialGradient3651);fill-opacity:1;stroke:none;display:inline"
       sodipodi:nodetypes="csssssssssssssssscccc" />
  </g>
</svg>